<svg height="150" width="255" xmlns="http://www.w3.org/2000/svg"><g stroke-linecap="round" stroke-width="4"><g stroke="#31458b"><path d="m5 146v-3h246v3zm-3-144h3v141h-3z" fill="none"/><path d="m29 146h-1v-135h1z" fill="none"/><path d="m64 146h-1v-135h1z" fill="none"/><path d="m99 146h-1v-135h1z" fill="none"/><path d="m134 146h-1v-135h1z" fill="none"/><path d="m169 146h-1v-135h1z" fill="none"/><path d="m203 146h-1v-135h1z" fill="#31458b" fill-rule="evenodd"/></g><path d="m10.325 120.38-.65-.761 76-64.999.65.76z" fill="none" stroke="#fff"/><path d="m85.609 55.311.782-.623 55 69-.782.623z" fill="none" stroke="#fff"/><path d="m141.246 124.435-.492-.87 106-60.001.492.871z" fill="none" stroke="#fff"/></g></svg>